<svg width="331" height="358" viewBox="0 0 331 358" fill="none" xmlns="http://www.w3.org/2000/svg">
<path fill-rule="evenodd" clip-rule="evenodd" d="M61.3762 18.0361C38.1821 18.3315 19.619 37.3734 19.9144 60.5675L23.0137 303.961C23.3091 327.155 42.351 345.718 65.5451 345.423C88.7392 345.128 107.302 326.086 107.007 302.892L105.098 152.965L88.8528 133.828L91.0082 303.095C91.191 317.454 79.6996 329.241 65.3414 329.424C50.9831 329.607 39.1952 318.116 39.0124 303.757L36.0486 71.01C27.4101 56.9577 30.0722 38.3222 43.0363 27.3172C57.3517 15.1652 78.8077 16.919 90.9597 31.2344L99.5249 41.3243C92.5594 27.3452 78.0393 17.824 61.3762 18.0361ZM54.3322 93.162L57.0109 303.528C57.0672 307.946 60.6942 311.482 65.1122 311.426C69.5301 311.369 73.0659 307.742 73.0097 303.324L70.5772 112.299L54.3322 93.162Z" fill="url(#paint0_linear_69_27)"/>
<path fill-rule="evenodd" clip-rule="evenodd" d="M269.556 338.837C255.151 338.906 239.652 331.781 228.411 318.45L38.5333 93.2452C20.439 71.7844 20.2332 42.3671 38.0738 27.5397C55.9143 12.7122 85.0453 18.0896 103.14 39.5504L223.793 182.651L226.575 210.774L90.8337 49.778C79.6324 36.4927 61.599 33.1639 50.5548 42.3428C39.5107 51.5216 39.638 69.7324 50.8393 83.0176L235.617 302.173L236.212 308.185C237.933 325.581 252.479 338.612 269.556 338.837ZM276.373 338.246C293.509 335.021 305.631 319.168 303.882 301.49L301.563 278.054C310.506 297.137 307.838 318.525 293.477 330.46C288.495 334.602 282.631 337.167 276.373 338.246ZM232.487 270.535L64.6835 71.5116C61.237 67.4238 61.1978 61.8205 64.596 58.9963C67.9942 56.172 73.5429 57.1962 76.9895 61.284L229.705 242.412L232.487 270.535Z" fill="url(#paint1_linear_69_27)"/>
<path fill-rule="evenodd" clip-rule="evenodd" d="M221.023 63.8546C225.528 63.5235 229.455 66.8343 229.793 71.2496L244.823 267.081L250.65 305.733C250.89 307.322 251.452 308.848 252.303 310.221L257.286 318.257C258.88 320.829 261.4 322.722 264.348 323.562L267.268 324.394C270.369 325.277 273.7 324.927 276.539 323.42L281.394 320.842C283.416 319.768 285.09 318.158 286.223 316.197L290.954 308.012C292.146 305.949 292.69 303.587 292.516 301.222L283.155 173.885C282.831 169.469 286.22 165.632 290.727 165.315C295.233 164.997 299.149 168.32 299.474 172.737L308.834 300.074C309.24 305.592 307.972 311.104 305.19 315.917L300.459 324.102C297.814 328.678 293.909 332.434 289.191 334.939L284.335 337.518C277.711 341.035 269.939 341.851 262.703 339.79L259.784 338.958C252.905 336.998 247.025 332.582 243.305 326.581L238.322 318.544C236.336 315.341 235.024 311.78 234.465 308.073L228.553 268.853L213.479 72.4485C213.14 68.0333 216.518 64.1857 221.023 63.8546Z" fill="url(#paint2_linear_69_27)"/>
<path fill-rule="evenodd" clip-rule="evenodd" d="M259.609 141.722C264.112 141.37 268.055 144.662 268.416 149.076L280.988 303.043C281.349 307.457 277.99 311.32 273.487 311.673C268.983 312.025 265.04 308.732 264.68 304.319L252.107 150.351C251.747 145.938 255.105 142.074 259.609 141.722Z" fill="url(#paint3_linear_69_27)"/>
<path d="M267.156 119.906C267.124 125.44 262.521 129.901 256.874 129.869C251.226 129.837 246.674 125.324 246.705 119.79C246.737 114.255 251.34 109.795 256.988 109.827C262.635 109.859 267.187 114.372 267.156 119.906Z" fill="url(#paint4_linear_69_27)"/>
<defs>
<linearGradient id="paint0_linear_69_27" x1="62.5288" y1="345.413" x2="64.08" y2="72.933" gradientUnits="userSpaceOnUse">
<stop stop-color="#C41D1D"/>
<stop offset="1" stop-color="#5D0E0E"/>
</linearGradient>
<linearGradient id="paint1_linear_69_27" x1="63.5344" y1="54.0533" x2="283.568" y2="320.57" gradientUnits="userSpaceOnUse">
<stop stop-color="#C41D1D"/>
<stop offset="1" stop-color="#5D0E0E"/>
</linearGradient>
<linearGradient id="paint2_linear_69_27" x1="271.795" y1="341.118" x2="255.908" y2="53.5762" gradientUnits="userSpaceOnUse">
<stop stop-color="#C41D1D"/>
<stop offset="1" stop-color="#5D0E0E"/>
</linearGradient>
<linearGradient id="paint3_linear_69_27" x1="271.795" y1="341.118" x2="255.908" y2="53.5762" gradientUnits="userSpaceOnUse">
<stop stop-color="#C41D1D"/>
<stop offset="1" stop-color="#5D0E0E"/>
</linearGradient>
<linearGradient id="paint4_linear_69_27" x1="271.795" y1="341.118" x2="255.908" y2="53.5762" gradientUnits="userSpaceOnUse">
<stop stop-color="#C41D1D"/>
<stop offset="1" stop-color="#5D0E0E"/>
</linearGradient>
</defs>
</svg>
